<svg xmlns="http://www.w3.org/2000/svg" width="512" height="512" viewBox="0 0 512 512" version="1.1"><path d="M 452.481 1.470 C 435.669 5.130, 418.382 16.442, 406.974 31.250 C 405.106 33.674, 404.182 34.002, 399.177 34.015 C 387.948 34.044, 373.836 39.053, 364.702 46.251 L 360.904 49.244 348.202 46.672 C 331.842 43.359, 307.117 41.346, 303.826 43.059 C 293.488 48.440, 3.984 222.773, 2.250 224.661 L -0 227.112 -0 367.101 L 0 507.091 2.455 509.545 L 4.909 512 232.405 512 C 392.696 512, 461.467 511.678, 465.201 510.910 C 481.874 507.480, 498.297 494.549, 505.855 478.899 C 508.086 474.280, 510.269 468.475, 510.706 466 C 511.260 462.862, 511.660 468.312, 512.029 484 C 512.320 496.375, 512.657 443.844, 512.779 367.264 C 512.921 277.960, 512.644 226.499, 512.008 223.764 C 511.463 221.419, 510.099 214.550, 508.977 208.500 C 502.757 174.954, 486.501 141.064, 464.347 115.457 L 459.120 109.414 460.157 104.957 C 461.807 97.868, 460.590 82.605, 457.722 74.422 C 452.575 59.733, 442.387 47.859, 428.765 40.672 L 424.029 38.174 429.385 33.279 C 434.778 28.350, 445.285 22.271, 452.272 20.037 C 454.346 19.373, 459.071 18.531, 462.772 18.165 L 469.500 17.500 469.789 8.750 L 470.078 0 464.289 0.079 C 461.105 0.123, 455.791 0.749, 452.481 1.470 M 387.536 54.118 C 370.258 60.059, 359 75.709, 359 93.787 C 359 110.533, 368.682 125.653, 383.990 132.816 C 388.879 135.103, 390.797 135.399, 401 135.447 C 411.970 135.498, 412.800 135.352, 419 132.299 C 427.433 128.146, 435.217 120.382, 439.289 112.062 C 442.337 105.833, 442.500 104.917, 442.500 94 C 442.500 82.914, 442.378 82.256, 439.095 75.714 C 436.816 71.171, 433.700 67.086, 429.668 63.353 C 422.860 57.050, 415.181 53.096, 413.861 55.213 C 412.601 57.233, 410 69.517, 410 73.447 L 410 77 400.950 77 L 391.901 77 392.549 70.750 C 392.906 67.313, 393.828 61.960, 394.599 58.856 C 395.370 55.751, 396 52.939, 396 52.606 C 396 51.580, 393.746 51.982, 387.536 54.118 M 174.249 140.755 L 39.998 221.500 266.664 221.752 C 391.330 221.891, 493.446 221.887, 493.590 221.744 C 494.122 221.212, 490.041 202.637, 487.481 193.934 C 481.305 172.946, 470.745 152.337, 456.642 133.750 C 453.825 130.037, 451.291 127.018, 451.010 127.039 C 450.730 127.060, 449.022 129.087, 447.215 131.543 C 440.995 139.999, 428.907 147.882, 416.448 151.608 C 408.454 153.999, 393.552 153.997, 385.500 151.604 C 365.686 145.715, 350.989 131.716, 344.406 112.462 C 339.681 98.639, 340.779 81.195, 347.162 68.683 C 348.249 66.551, 348.996 64.673, 348.820 64.510 C 347.800 63.566, 327.916 60.878, 319 60.480 L 308.500 60.010 174.249 140.755 M 298.505 84.995 L 292.546 91.017 305.511 104.011 L 318.476 117.004 324.480 111 L 330.485 104.995 317.475 91.984 L 304.464 78.973 298.505 84.995 M 210.998 143.503 L 198.525 156.005 204.760 162.240 L 210.995 168.475 223.497 156.002 C 230.374 149.143, 236 143.058, 236 142.481 C 236 141.160, 225.782 131, 224.454 131 C 223.913 131, 217.857 136.626, 210.998 143.503 M 288.008 143.492 L 275.546 155.984 281.501 162.001 L 287.455 168.017 300.220 155.280 L 312.985 142.543 307.274 136.772 C 304.133 133.597, 301.317 131, 301.016 131 C 300.716 131, 294.862 136.621, 288.008 143.492 M 151.727 177.773 L 138.983 190.545 145 196.500 L 151.017 202.454 164.001 189.499 L 176.985 176.543 171.274 170.772 C 168.133 167.597, 165.317 165, 165.017 165 C 164.717 165, 158.736 170.748, 151.727 177.773 M 238.492 171.008 L 232.546 177.016 245.008 189.508 C 251.862 196.379, 257.942 202, 258.519 202 C 259.840 202, 270 191.782, 270 190.454 C 270 189.467, 245.925 165, 244.954 165 C 244.670 165, 241.762 167.704, 238.492 171.008 M 338.998 177.503 L 326.525 190.005 332.765 196.245 L 339.005 202.485 351.734 189.756 L 364.464 177.027 358.513 171.013 C 355.240 167.706, 352.317 165, 352.016 165 C 351.716 165, 345.857 170.626, 338.998 177.503 M 432.998 177.503 L 420.525 190.005 426.765 196.245 L 433.005 202.485 445.734 189.756 L 458.464 177.027 452.513 171.013 C 449.240 167.706, 446.317 165, 446.016 165 C 445.716 165, 439.857 170.626, 432.998 177.503 M 0.486 367 C 0.486 444.275, 0.605 475.888, 0.750 437.250 C 0.895 398.613, 0.895 335.388, 0.750 296.750 C 0.605 258.113, 0.486 289.725, 0.486 367 M 17 255.988 L 17 272.977 225.750 273.238 L 434.500 273.500 440.120 276.135 C 448.024 279.841, 453.447 285.131, 457.240 292.835 L 460.500 299.454 460.804 362.477 C 461.122 428.275, 460.814 434.524, 456.876 442.243 C 454.308 447.277, 447.310 454.291, 442.313 456.840 C 440.181 457.928, 435.781 459.309, 432.535 459.909 C 428.395 460.674, 365.480 461, 221.816 461 L 17 461 17 478.013 L 17 495.026 239.250 494.763 L 461.500 494.500 467.344 492.143 C 478.212 487.760, 487.761 478.196, 492.166 467.282 L 494.500 461.500 494.775 350.250 L 495.050 239 256.025 239 L 17 239 17 255.988 M 17 324 L 17 358 230.500 358 L 444 358 443.956 331.750 C 443.902 299.266, 443.124 296.300, 433.500 291.881 C 429.660 290.117, 421.248 290.043, 223.250 290.022 L 17 290 17 324 M 17 410 L 17 444 222.250 443.994 C 368.155 443.990, 428.643 443.672, 431.453 442.891 C 436.508 441.488, 441.488 436.508, 442.891 431.453 C 443.556 429.057, 443.991 417.356, 443.994 401.750 L 444 376 230.500 376 L 17 376 17 410" stroke="none" fill="#050505" fill-rule="evenodd"/><path d="M 387.536 54.118 C 370.258 60.059, 359 75.709, 359 93.787 C 359 110.533, 368.682 125.653, 383.990 132.816 C 388.879 135.103, 390.797 135.399, 401 135.447 C 411.970 135.498, 412.800 135.352, 419 132.299 C 427.433 128.146, 435.217 120.382, 439.289 112.062 C 442.337 105.833, 442.500 104.917, 442.500 94 C 442.500 82.914, 442.378 82.256, 439.095 75.714 C 436.816 71.171, 433.700 67.086, 429.668 63.353 C 422.860 57.050, 415.181 53.096, 413.861 55.213 C 412.601 57.233, 410 69.517, 410 73.447 L 410 77 400.950 77 L 391.901 77 392.549 70.750 C 392.906 67.313, 393.828 61.960, 394.599 58.856 C 395.370 55.751, 396 52.939, 396 52.606 C 396 51.580, 393.746 51.982, 387.536 54.118 M 174.249 140.755 L 39.998 221.500 266.664 221.752 C 391.330 221.891, 493.446 221.887, 493.590 221.744 C 494.122 221.212, 490.041 202.637, 487.481 193.934 C 481.305 172.946, 470.745 152.337, 456.642 133.750 C 453.825 130.037, 451.291 127.018, 451.010 127.039 C 450.730 127.060, 449.022 129.087, 447.215 131.543 C 440.995 139.999, 428.907 147.882, 416.448 151.608 C 408.454 153.999, 393.552 153.997, 385.500 151.604 C 365.686 145.715, 350.989 131.716, 344.406 112.462 C 339.681 98.639, 340.779 81.195, 347.162 68.683 C 348.249 66.551, 348.996 64.673, 348.820 64.510 C 347.800 63.566, 327.916 60.878, 319 60.480 L 308.500 60.010 174.249 140.755 M 298.505 84.995 L 292.546 91.017 305.511 104.011 L 318.476 117.004 324.480 111 L 330.485 104.995 317.475 91.984 L 304.464 78.973 298.505 84.995 M 210.998 143.503 L 198.525 156.005 204.760 162.240 L 210.995 168.475 223.497 156.002 C 230.374 149.143, 236 143.058, 236 142.481 C 236 141.160, 225.782 131, 224.454 131 C 223.913 131, 217.857 136.626, 210.998 143.503 M 288.008 143.492 L 275.546 155.984 281.501 162.001 L 287.455 168.017 300.220 155.280 L 312.985 142.543 307.274 136.772 C 304.133 133.597, 301.317 131, 301.016 131 C 300.716 131, 294.862 136.621, 288.008 143.492 M 151.727 177.773 L 138.983 190.545 145 196.500 L 151.017 202.454 164.001 189.499 L 176.985 176.543 171.274 170.772 C 168.133 167.597, 165.317 165, 165.017 165 C 164.717 165, 158.736 170.748, 151.727 177.773 M 238.492 171.008 L 232.546 177.016 245.008 189.508 C 251.862 196.379, 257.942 202, 258.519 202 C 259.840 202, 270 191.782, 270 190.454 C 270 189.467, 245.925 165, 244.954 165 C 244.670 165, 241.762 167.704, 238.492 171.008 M 338.998 177.503 L 326.525 190.005 332.765 196.245 L 339.005 202.485 351.734 189.756 L 364.464 177.027 358.513 171.013 C 355.240 167.706, 352.317 165, 352.016 165 C 351.716 165, 345.857 170.626, 338.998 177.503 M 432.998 177.503 L 420.525 190.005 426.765 196.245 L 433.005 202.485 445.734 189.756 L 458.464 177.027 452.513 171.013 C 449.240 167.706, 446.317 165, 446.016 165 C 445.716 165, 439.857 170.626, 432.998 177.503 M 17 255.988 L 17 272.977 225.750 273.238 L 434.500 273.500 440.120 276.135 C 448.024 279.841, 453.447 285.131, 457.240 292.835 L 460.500 299.454 460.804 362.477 C 461.122 428.275, 460.814 434.524, 456.876 442.243 C 454.308 447.277, 447.310 454.291, 442.313 456.840 C 440.181 457.928, 435.781 459.309, 432.535 459.909 C 428.395 460.674, 365.480 461, 221.816 461 L 17 461 17 478.013 L 17 495.026 239.250 494.763 L 461.500 494.500 467.344 492.143 C 478.212 487.760, 487.761 478.196, 492.166 467.282 L 494.500 461.500 494.775 350.250 L 495.050 239 256.025 239 L 17 239 17 255.988 M 17 324 L 17 358 230.500 358 L 444 358 443.956 331.750 C 443.902 299.266, 443.124 296.300, 433.500 291.881 C 429.660 290.117, 421.248 290.043, 223.250 290.022 L 17 290 17 324 M 17 410 L 17 444 222.250 443.994 C 368.155 443.990, 428.643 443.672, 431.453 442.891 C 436.508 441.488, 441.488 436.508, 442.891 431.453 C 443.556 429.057, 443.991 417.356, 443.994 401.750 L 444 376 230.500 376 L 17 376 17 410" stroke="none" fill="#f1b3aa" fill-rule="evenodd"/></svg>